<?xml version="1.0" encoding="utf-8"?>
<!-- Generator: Adobe Illustrator 24.0.2, SVG Export Plug-In . SVG Version: 6.00 Build 0)  -->
<svg version="1.0" id="Layer_1" xmlns="http://www.w3.org/2000/svg" xmlns:xlink="http://www.w3.org/1999/xlink" x="0px" y="0px"
	 viewBox="0 0 84.67 141.73" enable-background="new 0 0 84.67 141.73" xml:space="preserve">
<g>
	<g>
		<path fill="#000000" d="M10.18,126.18h1.39c0.89,0,1.55,0.1,1.99,0.33c0.43,0.22,0.79,0.58,1.08,1.08
			c0.28,0.5,0.41,1.08,0.41,1.75c0,0.47-0.08,0.91-0.23,1.31c-0.16,0.4-0.37,0.73-0.65,0.99c-0.28,0.26-0.57,0.44-0.9,0.55
			c-0.33,0.09-0.88,0.15-1.68,0.15h-1.4V126.18 M11.34,127.31v3.87h0.54c0.54,0,0.93-0.06,1.17-0.18c0.24-0.13,0.44-0.33,0.59-0.62
			c0.16-0.29,0.23-0.64,0.23-1.07c0-0.65-0.18-1.16-0.55-1.52c-0.33-0.33-0.86-0.49-1.59-0.49H11.34z"/>
		<path fill="#000000" d="M26.42,126.17h1.16v3.98c0,0.34,0.03,0.59,0.09,0.73c0.07,0.15,0.16,0.26,0.31,0.35
			c0.14,0.08,0.31,0.12,0.51,0.12c0.21,0,0.39-0.04,0.54-0.13c0.16-0.1,0.26-0.22,0.32-0.37c0.06-0.15,0.09-0.42,0.09-0.84v-3.84
			h1.16v3.67c0,0.62-0.03,1.05-0.1,1.29c-0.07,0.24-0.21,0.47-0.4,0.7c-0.2,0.22-0.43,0.39-0.68,0.49c-0.26,0.11-0.56,0.17-0.9,0.17
			c-0.45,0-0.84-0.11-1.17-0.31c-0.33-0.21-0.57-0.46-0.71-0.77c-0.14-0.31-0.22-0.83-0.22-1.57V126.17"/>
		<path fill="#000000" d="M42.23,132.33v-6.17h0.96c0.57,0,0.98,0.04,1.24,0.11c0.37,0.1,0.66,0.28,0.88,0.55
			c0.21,0.26,0.32,0.57,0.32,0.93c0,0.23-0.04,0.45-0.14,0.64c-0.1,0.19-0.26,0.37-0.48,0.54c0.37,0.18,0.65,0.4,0.82,0.66
			c0.18,0.25,0.26,0.57,0.26,0.93c0,0.35-0.09,0.67-0.26,0.95c-0.18,0.28-0.42,0.5-0.7,0.64c-0.28,0.14-0.67,0.21-1.17,0.21H42.23
			 M43.39,127.29v1.3h0.26c0.29,0,0.51-0.06,0.65-0.19c0.14-0.12,0.21-0.28,0.21-0.49c0-0.19-0.07-0.34-0.2-0.45
			c-0.14-0.11-0.34-0.17-0.61-0.17H43.39z M43.39,129.63v1.59h0.29c0.49,0,0.83-0.07,1-0.18c0.17-0.13,0.25-0.31,0.25-0.54
			c0-0.26-0.1-0.47-0.3-0.63c-0.21-0.16-0.54-0.23-1.01-0.23H43.39z"/>
		<path fill="#000000" d="M59.39,126.17h1.18l2.37,6.17h-1.22l-0.49-1.27h-2.53l-0.49,1.27H57L59.39,126.17z M59.98,127.81
			l-0.84,2.13h1.67L59.98,127.81z"/>
		<rect x="74.04" y="126.18" fill="#000000" width="1.17" height="6.16"/>
		<path fill="#000000" d="M13.63,79.22l4.94,10.6h-1.14l-1.65-3.47h-4.61l-1.64,3.47H8.36l5.02-10.6H13.63z M13.5,81.44l-1.83,3.88
			h3.65L13.5,81.44z"/>
		<path fill="#000000" d="M21.01,79.22h2.1c1.18,0,1.96,0.05,2.39,0.14c0.62,0.14,1.14,0.45,1.53,0.93
			c0.39,0.47,0.59,1.06,0.59,1.75c0,0.58-0.13,1.08-0.4,1.52c-0.27,0.44-0.66,0.77-1.16,0.99c-0.51,0.23-1.2,0.34-2.08,0.35
			l3.8,4.92h-1.32l-3.79-4.92h-0.6v4.92h-1.06V79.22 M22.06,80.27v3.59l1.82,0.01c0.71,0,1.22-0.06,1.56-0.2
			c0.34-0.14,0.6-0.35,0.79-0.64c0.19-0.3,0.28-0.63,0.28-0.99c0-0.36-0.09-0.68-0.28-0.97c-0.2-0.29-0.45-0.5-0.76-0.62
			c-0.31-0.12-0.83-0.18-1.55-0.18H22.06z"/>
		<path fill="#000000" d="M35.01,79.22l4.94,10.6h-1.14l-1.65-3.47h-4.61l-1.63,3.47h-1.19l5.02-10.6H35.01z M34.88,81.44
			l-1.83,3.88h3.65L34.88,81.44z"/>
		<path fill="#000000" d="M42.37,79.22h2.08c0.84,0,1.49,0.1,1.93,0.29c0.46,0.2,0.81,0.51,1.08,0.92c0.26,0.41,0.39,0.87,0.39,1.37
			c0,0.48-0.12,0.9-0.34,1.28c-0.23,0.39-0.57,0.71-1.01,0.94c0.55,0.19,0.98,0.41,1.27,0.66c0.29,0.25,0.52,0.56,0.69,0.92
			c0.17,0.36,0.25,0.75,0.25,1.16c0,0.85-0.31,1.58-0.93,2.16c-0.62,0.59-1.45,0.89-2.5,0.89h-2.9V79.22 M43.42,80.27v3.39h0.6
			c0.73,0,1.27-0.07,1.61-0.21c0.34-0.14,0.62-0.35,0.82-0.65c0.2-0.29,0.29-0.62,0.29-0.98c0-0.48-0.16-0.86-0.5-1.13
			c-0.33-0.28-0.87-0.42-1.61-0.42H43.42z M43.42,84.71v4.07h1.3c0.77,0,1.33-0.08,1.69-0.23c0.36-0.15,0.65-0.39,0.87-0.72
			c0.21-0.32,0.32-0.67,0.32-1.04c0-0.48-0.15-0.88-0.45-1.23c-0.31-0.35-0.73-0.6-1.26-0.73c-0.36-0.09-0.98-0.13-1.87-0.13H43.42z
			"/>
		<rect x="51.4" y="79.22" fill="#000000" width="1.06" height="10.6"/>
		<path fill="#000000" d="M59.98,79.22l4.94,10.6h-1.15l-1.64-3.47h-4.61l-1.64,3.47h-1.18l5.01-10.6H59.98z M59.85,81.44
			l-1.83,3.88h3.64L59.85,81.44z"/>
		<polygon fill="#000000" points="67.31,89.82 67.31,79.22 67.54,79.22 74.58,87.33 74.58,79.22 75.65,79.22 75.65,89.82 
			75.4,89.82 68.41,81.8 68.41,89.82 		"/>
		<path fill="#000000" d="M8.6,95.45h2.1c1.17,0,1.97,0.05,2.39,0.15c0.63,0.14,1.14,0.45,1.53,0.92c0.39,0.48,0.59,1.06,0.59,1.75
			c0,0.58-0.14,1.08-0.41,1.52c-0.27,0.44-0.66,0.77-1.16,0.99c-0.51,0.22-1.19,0.34-2.08,0.35l3.8,4.92h-1.31l-3.8-4.92H9.65v4.92
			H8.6V95.45 M9.65,96.49v3.6l1.82,0.02c0.7,0,1.22-0.07,1.56-0.2c0.34-0.14,0.6-0.36,0.79-0.65c0.19-0.3,0.28-0.63,0.28-0.99
			c0-0.36-0.1-0.69-0.28-0.97c-0.2-0.29-0.44-0.49-0.75-0.62c-0.32-0.12-0.83-0.19-1.55-0.19H9.65z"/>
		<path fill="#000000" d="M22.23,95.45l4.94,10.6h-1.15l-1.64-3.46h-4.61l-1.63,3.46h-1.19l5.02-10.6H22.23z M22.09,97.67
			l-1.83,3.88h3.65L22.09,97.67z"/>
		<polygon fill="#000000" points="29.19,106.05 29.19,95.45 29.43,95.45 36.46,103.56 36.46,95.45 37.53,95.45 37.53,106.05 
			37.28,106.05 30.29,98.04 30.29,106.05 		"/>
		<path fill="#000000" d="M50.34,97.41l-0.84,0.64c-0.46-0.6-1.01-1.06-1.67-1.36c-0.65-0.31-1.35-0.47-2.13-0.47
			c-0.85,0-1.63,0.2-2.35,0.61c-0.72,0.4-1.28,0.95-1.68,1.64c-0.4,0.69-0.6,1.46-0.6,2.31c0,1.29,0.45,2.38,1.33,3.24
			c0.89,0.87,2.01,1.3,3.36,1.3c1.49,0,2.73-0.59,3.73-1.75l0.84,0.64c-0.53,0.67-1.19,1.2-1.98,1.55
			c-0.79,0.37-1.67,0.56-2.65,0.56c-1.85,0-3.32-0.62-4.39-1.86c-0.9-1.04-1.35-2.3-1.35-3.78c0-1.55,0.55-2.85,1.63-3.91
			c1.09-1.06,2.45-1.59,4.09-1.59c0.99,0,1.88,0.2,2.68,0.59C49.17,96.16,49.83,96.71,50.34,97.41"/>
		<polygon fill="#000000" points="52.84,95.46 53.89,95.46 53.89,99.9 59.31,99.9 59.31,95.46 60.37,95.46 60.37,106.06 
			59.31,106.06 59.31,100.95 53.89,100.95 53.89,106.06 52.84,106.06 		"/>
		<polygon fill="#000000" points="63.33,95.46 69.4,95.46 69.4,96.5 64.4,96.5 64.4,99.81 69.36,99.81 69.36,100.85 64.4,100.85 
			64.4,105.02 69.36,105.02 69.36,106.06 63.33,106.06 		"/>
		<path fill="#000000" d="M70.51,104.08l0.91-0.54c0.63,1.18,1.36,1.76,2.19,1.76c0.35,0,0.69-0.08,1-0.25
			c0.31-0.17,0.55-0.39,0.71-0.67c0.16-0.27,0.25-0.57,0.25-0.88c0-0.36-0.12-0.71-0.37-1.04c-0.33-0.47-0.93-1.04-1.82-1.7
			c-0.88-0.67-1.43-1.15-1.65-1.45c-0.38-0.5-0.56-1.04-0.56-1.63c0-0.46,0.1-0.88,0.33-1.26c0.22-0.38,0.53-0.68,0.93-0.9
			c0.41-0.22,0.84-0.33,1.31-0.33c0.5,0,0.97,0.12,1.4,0.38c0.44,0.25,0.9,0.71,1.39,1.37l-0.87,0.65c-0.4-0.53-0.73-0.88-1.02-1.05
			c-0.28-0.17-0.58-0.25-0.92-0.25c-0.43,0-0.77,0.13-1.05,0.39c-0.26,0.26-0.41,0.58-0.41,0.96c0,0.24,0.05,0.45,0.15,0.67
			c0.1,0.21,0.26,0.45,0.52,0.7c0.14,0.14,0.61,0.49,1.38,1.06c0.92,0.68,1.55,1.28,1.89,1.8c0.34,0.53,0.52,1.06,0.52,1.59
			c0,0.76-0.29,1.43-0.88,2c-0.58,0.57-1.29,0.84-2.13,0.84c-0.65,0-1.23-0.17-1.75-0.51C71.43,105.46,70.95,104.88,70.51,104.08"/>
		<path fill="#000000" d="M16.47,112.24l-0.92,0.9c-0.59-0.62-1.27-0.93-2.06-0.93c-0.68,0-1.25,0.23-1.72,0.68
			c-0.46,0.45-0.69,1-0.69,1.65c0,0.67,0.24,1.24,0.71,1.7c0.48,0.47,1.07,0.7,1.78,0.7c0.45,0,0.84-0.1,1.15-0.29
			c0.31-0.19,0.56-0.49,0.75-0.9h-2.01v-1.23h3.49l0.01,0.29c0,0.6-0.15,1.18-0.47,1.73c-0.31,0.54-0.72,0.96-1.22,1.24
			c-0.5,0.28-1.09,0.43-1.76,0.43c-0.72,0-1.36-0.16-1.93-0.47c-0.57-0.32-1.01-0.77-1.34-1.34c-0.33-0.58-0.49-1.2-0.49-1.87
			c0-0.92,0.3-1.71,0.92-2.39c0.72-0.81,1.66-1.21,2.81-1.21c0.6,0,1.17,0.11,1.69,0.33C15.61,111.46,16.05,111.79,16.47,112.24"/>
		<path fill="#000000" d="M23.37,110.95c0.97,0,1.81,0.35,2.51,1.07c0.71,0.7,1.06,1.57,1.06,2.59c0,1.02-0.35,1.87-1.04,2.57
			c-0.69,0.7-1.53,1.05-2.52,1.05c-1.04,0-1.9-0.36-2.59-1.08c-0.69-0.71-1.03-1.57-1.03-2.55c0-0.66,0.16-1.27,0.48-1.82
			c0.32-0.55,0.76-0.99,1.32-1.32C22.12,111.11,22.72,110.95,23.37,110.95 M23.35,112.21c-0.64,0-1.17,0.23-1.61,0.68
			c-0.43,0.44-0.65,1.01-0.65,1.71c0,0.77,0.27,1.38,0.82,1.83c0.42,0.35,0.91,0.53,1.46,0.53c0.62,0,1.15-0.23,1.59-0.69
			c0.44-0.45,0.65-1.01,0.65-1.67c0-0.67-0.22-1.23-0.65-1.69C24.52,112.44,23.97,112.21,23.35,112.21"/>
		<polygon fill="#000000" points="30.12,111.12 31.42,111.12 31.42,116.78 33.37,116.78 33.37,118.05 30.12,118.05 		"/>
		<polygon fill="#000000" points="36.33,111.12 39.77,111.12 39.77,112.39 37.63,112.39 37.63,113.66 39.77,113.66 39.77,114.92 
			37.63,114.92 37.63,118.05 36.33,118.05 		"/>
		<path fill="#000000" d="M53.88,112.33l-0.92,0.88c-0.63-0.66-1.33-1-2.12-1c-0.66,0-1.22,0.23-1.67,0.68
			c-0.45,0.45-0.68,1.02-0.68,1.67c0,0.46,0.1,0.88,0.3,1.23c0.2,0.36,0.48,0.64,0.84,0.84c0.38,0.2,0.78,0.3,1.24,0.3
			c0.38,0,0.73-0.07,1.04-0.21c0.32-0.14,0.66-0.4,1.04-0.78l0.89,0.94c-0.51,0.5-1,0.85-1.45,1.04c-0.45,0.19-0.97,0.29-1.56,0.29
			c-1.08,0-1.96-0.34-2.65-1.02c-0.68-0.69-1.03-1.55-1.03-2.62c0-0.69,0.15-1.3,0.47-1.84c0.31-0.54,0.76-0.96,1.34-1.29
			c0.58-0.33,1.21-0.49,1.88-0.49c0.58,0,1.12,0.12,1.66,0.36C53.04,111.55,53.49,111.89,53.88,112.33"/>
		<polygon fill="#000000" points="56.93,111.12 58.24,111.12 58.24,116.78 60.18,116.78 60.18,118.05 56.93,118.05 		"/>
		<path fill="#000000" d="M63.06,111.12h1.31v4.48c0,0.39,0.03,0.66,0.1,0.82c0.07,0.16,0.19,0.29,0.35,0.38
			c0.15,0.1,0.34,0.14,0.57,0.14c0.24,0,0.45-0.05,0.61-0.16c0.17-0.1,0.29-0.24,0.35-0.41c0.07-0.17,0.1-0.49,0.1-0.95v-4.31h1.31
			v4.12c0,0.7-0.04,1.18-0.12,1.46c-0.08,0.28-0.23,0.53-0.45,0.78c-0.23,0.25-0.48,0.44-0.77,0.56c-0.29,0.12-0.62,0.18-1,0.18
			c-0.51,0-0.94-0.12-1.32-0.35c-0.37-0.23-0.64-0.52-0.8-0.87c-0.16-0.34-0.24-0.93-0.24-1.76V111.12"/>
		<path fill="#000000" d="M71.2,118.05v-6.93h1.09c0.64,0,1.1,0.04,1.39,0.12c0.42,0.11,0.75,0.31,1,0.61
			c0.25,0.3,0.37,0.65,0.37,1.06c0,0.27-0.05,0.51-0.16,0.72c-0.11,0.22-0.29,0.42-0.53,0.61c0.42,0.2,0.73,0.45,0.92,0.74
			c0.19,0.3,0.29,0.65,0.29,1.06c0,0.38-0.1,0.74-0.3,1.07c-0.21,0.31-0.46,0.55-0.78,0.71c-0.32,0.16-0.76,0.24-1.32,0.24H71.2
			 M72.51,112.39v1.46h0.29c0.34,0,0.58-0.07,0.73-0.21c0.16-0.13,0.24-0.32,0.24-0.55c0-0.22-0.07-0.39-0.22-0.51
			c-0.15-0.13-0.38-0.19-0.69-0.19H72.51z M72.51,115.02v1.75h0.34c0.57,0,0.94-0.06,1.13-0.2c0.2-0.14,0.3-0.34,0.3-0.6
			c0-0.29-0.12-0.53-0.35-0.7c-0.23-0.17-0.6-0.26-1.13-0.26H72.51z"/>
	</g>
	<rect x="3.76" y="2.15" fill="none" stroke="#000000" stroke-width="0.6" width="77.79" height="137.03"/>
	<path fill="none" stroke="#000000" stroke-width="0.1688" d="M78.43,63.48V5.57H6.75v55.5l0.37-0.29
		c2.27-1.65,17.95-12.49,37.33-11.57c19.32,0.91,33.66,7.13,33.91,14.23L78.43,63.48z"/>
	<path fill="#000000" d="M18.04,75.11c-10.76,0-6.12-11.95-11.21-11.61c0,0,13.7-7.29,29.13-7.29c23.67,0,37.42,11.91,37.42,11.91
		s-8.78-4.23-18.93-4.23C40.83,63.88,29.08,75.11,18.04,75.11"/>
	<path fill="#000000" d="M44.34,51.7c-3.16,0-10.82,0.04-15.64,2c26.21-2.43,42.77,8.02,49.67,14.7
		C80.57,57.77,61.11,51.7,44.34,51.7"/>
	<path fill="#000000" d="M6.75,5.57v55.5l0.37-0.29c2.27-1.65,17.95-12.49,37.33-11.57c19.32,0.91,33.66,7.13,33.91,14.23l0.06,0.03
		V5.57H6.75z M59.76,43.84c-0.96,0.96-2.37,0.56-3.18-0.25c-0.8-0.8-1.29-1.7-3.71-4.12c-3.16-3.15-6.9-6.86-10.19-10.1
		c-3.29,3.24-7.04,6.94-10.18,10.1c-2.43,2.42-2.91,3.31-3.71,4.12c-0.8,0.8-2.22,1.2-3.19,0.25c-0.96-0.96-0.67-2.04-0.33-2.38
		c0.86-0.86,2.17,0.41,3.1,0.33c0.66-0.06,1.82-0.68,3.79-2.65c3.14-3.15,6.85-6.89,10.09-10.18c-2.78-2.75-5.2-5.13-6.57-6.5
		c-0.78-0.78-0.87-0.64-1.38-1.15c-3.88-3.89-5.55-5.1-5.8-5.35c-0.12-0.12-0.12-0.32,0-0.44l0.75-0.75c0.12-0.12,0.32-0.12,0.43,0
		c0.25,0.25,1.46,1.91,5.35,5.79c0.52,0.52,0.37,0.61,1.16,1.39c1.36,1.36,3.75,3.79,6.49,6.57c2.75-2.79,5.14-5.21,6.5-6.57
		c0.77-0.78,0.63-0.86,1.15-1.39c3.89-3.88,5.1-5.55,5.35-5.79c0.12-0.12,0.32-0.12,0.44,0l0.75,0.75c0.12,0.12,0.12,0.32,0,0.44
		c-0.26,0.24-1.91,1.46-5.79,5.35c-0.52,0.51-0.6,0.37-1.39,1.15c-1.37,1.37-3.79,3.75-6.58,6.5c3.25,3.29,6.95,7.04,10.1,10.18
		c1.96,1.98,3.13,2.6,3.78,2.65c0.93,0.08,2.24-1.19,3.1-0.33C60.43,41.8,60.71,42.88,59.76,43.84z"/>
	<rect x="8.04" y="121.02" fill="#000000" width="69.23" height="0.79"/>
	<rect x="3.5" y="1.9" fill="none" width="78.31" height="137.55"/>
</g>
</svg>
