<?xml version="1.0" encoding="utf-8"?>
<!-- Generator: Adobe Illustrator 16.0.0, SVG Export Plug-In . SVG Version: 6.00 Build 0)  -->
<!DOCTYPE svg PUBLIC "-//W3C//DTD SVG 1.1//EN" "http://www.w3.org/Graphics/SVG/1.1/DTD/svg11.dtd">
<svg version="1.1" id="Layer_1" xmlns="http://www.w3.org/2000/svg" xmlns:xlink="http://www.w3.org/1999/xlink" x="0px" y="0px"
	 width="140px" height="50px" viewBox="0 0 140 50" enable-background="new 0 0 140 50" xml:space="preserve">
<g>
	<defs>
		<rect id="SVGID_1_" y="1.688" width="140" height="46.667"/>
	</defs>
	<clipPath id="SVGID_2_">
		<use href="#SVGID_1_"  overflow="visible"/>
	</clipPath>
	<path clip-path="url(#SVGID_2_)" fill="#407663" d="M65.667,24.333c0,2.913-2.37,5.282-5.282,5.282h-7.053
		c-2.913,0-5.283-2.369-5.283-5.282V7.388h-3.467v16.946c0,4.825,3.925,8.75,8.75,8.75h7.053c4.825,0,8.75-3.925,8.75-8.75V7.388
		h-3.468V24.333z"/>
	<path clip-path="url(#SVGID_2_)" fill="#407663" d="M90.782,7.355H72.239l2.479,3.467h16.064c1.424,0,2.582,1.159,2.582,2.582
		v3.059c0,1.424-1.158,2.583-2.582,2.583H80.547L91.151,33.09h4.266l-8.032-10.625l3.397-0.008c3.337,0,6.049-2.714,6.049-6.05
		v-3.001C96.831,10.07,94.119,7.355,90.782,7.355"/>
	<path clip-path="url(#SVGID_2_)" fill="#407663" d="M23.966,7.396h-0.005c-1.357,0.001-2.579,0.699-3.271,1.865L6.368,33.09h4.046
		l5.509-9.166h8.483h0.638h2.106l-2.071-3.467h-0.035h-0.038h-6.999l5.658-9.414c0.002-0.004,0.005-0.009,0.007-0.012
		c0.065-0.111,0.165-0.167,0.293-0.167h0c0.129,0,0.228,0.056,0.295,0.17L37.439,33.09h4.039L27.24,9.259
		C26.547,8.091,25.324,7.396,23.966,7.396"/>
	<path clip-path="url(#SVGID_2_)" fill="#407663" d="M119.394,9.259c-0.692-1.167-1.917-1.863-3.273-1.863h-0.007
		c-1.355,0.002-2.578,0.699-3.27,1.865L98.522,33.09h4.045l5.509-9.166h8.482h0.639h2.106l-2.072-3.467h-0.034h-0.038h-6.999
		l5.659-9.414c0.002-0.005,0.004-0.008,0.007-0.012c0.064-0.111,0.164-0.167,0.293-0.167h0.001c0.128,0,0.227,0.056,0.294,0.17
		l13.18,22.057h4.038L119.394,9.259z"/>
	<path clip-path="url(#SVGID_2_)" fill="#407663" d="M42.657,41.524v-0.252c0-0.073,0.039-0.109,0.116-0.109h0.375
		c0.077,0,0.116,0.036,0.116,0.109v0.205c0,0.471,0.247,0.707,0.74,0.707h0.732c0.494,0,0.741-0.241,0.741-0.724v-0.267
		c0-0.377-0.331-0.623-0.99-0.738c-0.277-0.047-0.555-0.103-0.832-0.165c-0.277-0.063-0.513-0.185-0.707-0.365
		c-0.194-0.181-0.291-0.429-0.291-0.742v-0.385c0-0.362,0.109-0.646,0.329-0.854c0.219-0.207,0.52-0.31,0.902-0.31h0.923
		c0.377,0,0.677,0.103,0.899,0.31c0.222,0.207,0.332,0.491,0.332,0.854v0.195c0,0.079-0.036,0.118-0.107,0.118h-0.383
		c-0.072,0-0.108-0.039-0.108-0.118v-0.142c0-0.477-0.247-0.715-0.74-0.715h-0.707c-0.494,0-0.741,0.249-0.741,0.747v0.313
		c0,0.268,0.186,0.451,0.557,0.551c0.167,0.041,0.35,0.079,0.549,0.113c0.2,0.034,0.401,0.078,0.604,0.134
		c0.203,0.055,0.387,0.123,0.553,0.204c0.167,0.082,0.301,0.205,0.404,0.369c0.103,0.166,0.153,0.365,0.153,0.602v0.354
		c0,0.362-0.111,0.646-0.333,0.853c-0.221,0.207-0.521,0.311-0.898,0.311h-0.956c-0.377,0-0.677-0.104-0.898-0.311
		C42.768,42.17,42.657,41.887,42.657,41.524"/>
	<path clip-path="url(#SVGID_2_)" fill="#407663" d="M51.972,42.688h-0.375c-0.078,0-0.117-0.037-0.117-0.11v-4.832
		c0-0.072,0.039-0.109,0.117-0.109h0.375c0.078,0,0.117,0.037,0.117,0.109v2.711h0.024c0.039-0.11,0.1-0.218,0.183-0.322
		l1.863-2.389c0.05-0.072,0.122-0.109,0.216-0.109h0.45c0.094,0,0.107,0.039,0.042,0.118l-1.647,2.104l1.879,2.703
		c0.062,0.084,0.036,0.126-0.075,0.126h-0.341c-0.116,0-0.197-0.037-0.241-0.11l-1.597-2.303l-0.756,0.856v1.446
		C52.089,42.65,52.05,42.688,51.972,42.688"/>
	<path clip-path="url(#SVGID_2_)" fill="#407663" d="M61.712,42.688h-0.375c-0.078,0-0.116-0.037-0.116-0.11v-1.784l-1.581-3.039
		c-0.016-0.037-0.016-0.066,0-0.088c0.017-0.021,0.042-0.03,0.075-0.03h0.466c0.061,0,0.108,0.037,0.141,0.109l1.189,2.381h0.042
		l1.182-2.381c0.022-0.072,0.066-0.109,0.133-0.109h0.474c0.094,0,0.12,0.039,0.075,0.118l-1.588,3.039v1.784
		C61.828,42.65,61.79,42.688,61.712,42.688"/>
	<path clip-path="url(#SVGID_2_)" fill="#407663" d="M68.907,42.687h-0.375c-0.078,0-0.116-0.036-0.116-0.109v-4.832
		c0-0.072,0.039-0.109,0.116-0.109h1.946c0.383,0,0.682,0.103,0.899,0.311c0.216,0.206,0.324,0.49,0.324,0.852v0.872
		c0,0.367-0.108,0.652-0.324,0.856c-0.217,0.205-0.516,0.307-0.899,0.307h-1.372c-0.056,0-0.083,0.023-0.083,0.07v1.674
		C69.023,42.65,68.984,42.687,68.907,42.687 M69.106,40.322h1.289c0.466,0,0.699-0.225,0.699-0.676v-0.825
		c0-0.456-0.232-0.684-0.699-0.684h-1.289c-0.056,0-0.083,0.024-0.083,0.071v2.043C69.023,40.299,69.051,40.322,69.106,40.322"/>
	<path clip-path="url(#SVGID_2_)" fill="#407663" d="M79.078,42.687h-0.989c-0.383,0-0.684-0.102-0.903-0.306
		c-0.218-0.205-0.327-0.489-0.327-0.856v-2.727c0-0.366,0.109-0.652,0.327-0.855c0.22-0.205,0.521-0.307,0.903-0.307h0.989
		c0.383,0,0.684,0.103,0.902,0.311c0.22,0.206,0.329,0.49,0.329,0.852v2.727c0,0.362-0.109,0.646-0.329,0.853
		C79.762,42.584,79.461,42.687,79.078,42.687 M78.155,42.185h0.848c0.467,0,0.699-0.229,0.699-0.684v-2.68
		c0-0.456-0.232-0.684-0.699-0.684h-0.848c-0.461,0-0.69,0.228-0.69,0.684v2.68C77.465,41.956,77.694,42.185,78.155,42.185"/>
	<path clip-path="url(#SVGID_2_)" fill="#407663" d="M87.828,42.687h-0.99c-0.382,0-0.683-0.102-0.902-0.306
		c-0.219-0.205-0.328-0.489-0.328-0.856v-2.727c0-0.366,0.109-0.652,0.328-0.855c0.22-0.205,0.521-0.307,0.902-0.307h0.99
		c0.383,0,0.684,0.103,0.902,0.311c0.22,0.206,0.329,0.49,0.329,0.852v2.727c0,0.362-0.109,0.646-0.329,0.853
		C88.512,42.584,88.211,42.687,87.828,42.687 M86.905,42.185h0.849c0.465,0,0.698-0.229,0.698-0.684v-2.68
		c0-0.456-0.233-0.684-0.698-0.684h-0.849c-0.46,0-0.69,0.228-0.69,0.684v2.68C86.215,41.956,86.445,42.185,86.905,42.185"/>
	<path clip-path="url(#SVGID_2_)" fill="#407663" d="M97.227,42.688h-2.67c-0.078,0-0.116-0.037-0.116-0.11v-4.832
		c0-0.072,0.038-0.109,0.116-0.109h0.374c0.078,0,0.116,0.037,0.116,0.109v4.353c0,0.047,0.028,0.071,0.084,0.071h2.096
		c0.078,0,0.117,0.039,0.117,0.117v0.291C97.344,42.65,97.305,42.688,97.227,42.688"/>
</g>
</svg>
