<svg xmlns="http://www.w3.org/2000/svg" height="800" width="1200" viewBox="-80.10405 -32.35075 694.2351 194.1045"><defs><clipPath id="a" clipPathUnits="userSpaceOnUse"><path d="M18 591.75h186V774H18z"/></clipPath></defs><g clip-path="url(#a)" transform="matrix(4.33846 0 0 -4.33846 -235.81 3028.238)" fill="#4b77a9"><path d="M117.76 681.193l-4.67 11.742-4.643-11.664a113.384 113.384 0 009.313-.078m38.758-11.905c-10.008 4.352-21.263 7.575-34.488 8.663l4.027-9.78h-3.117l-3.975 9.99a120.205 120.205 0 01-11.716.093l-4.013-10.083h-3.119l4.083 9.922c-14.028-.92-25.975-4.244-36.469-8.802v.616c7.004 3.909 13.93 6.827 21.407 8.733v6.003l-8.42 12.927h3.128l6.682-10.741 6.685 10.74h3.125l-8.419-12.926-.002-5.345c4.28.929 8.752 1.543 13.535 1.834l6.94 16.866h1.391l6.995-17c4.695-.375 9.096-1.066 13.315-2.077v16.4h-6.88v2.249h16.606v-2.25h-6.877v-17.138c6.784-1.895 13.15-4.651 19.576-8.281zm11.126 28.282H151.04v-2.25h6.88v-20.27h2.846v20.27h6.878zm-95.319-22.52l-2.847-.002v11.112H57.2v-11.11h-2.847v22.52H57.2v-9.163h12.278v9.163h2.847zm102.83 20.766c-.136.08-.356.12-.658.12h-.464v-1.128h.491c.233 0 .403.025.52.07a.487.487 0 01.321.485c0 .225-.072.375-.21.453m-.586.487c.381 0 .663-.037.844-.109.32-.134.478-.398.478-.786 0-.275-.1-.48-.3-.612a1.175 1.175 0 00-.449-.147c.247-.038.421-.139.535-.303a.882.882 0 00.165-.482v-.225c0-.073.003-.15.008-.229a.502.502 0 01.027-.164l.02-.038h-.508l-.009.03c-.003.011-.003.025-.006.037l-.013.1v.246c0 .356-.1.592-.293.707-.118.065-.316.1-.607.1h-.428v-1.22h-.548v3.095zm-1.658.16a2.347 2.347 0 01-.707-1.719c0-.675.233-1.25.703-1.727a2.314 2.314 0 011.715-.714c.672 0 1.244.236 1.718.714.47.476.705 1.052.705 1.727a2.36 2.36 0 01-.705 1.72 2.353 2.353 0 01-1.718.71 2.333 2.333 0 01-1.71-.71m3.704-3.715a2.696 2.696 0 00-1.994-.83c-.78 0-1.445.275-1.995.83a2.743 2.743 0 00-.816 1.998c0 .775.275 1.44.826 1.99.548.548 1.21.823 1.985.823.782 0 1.446-.275 1.994-.824a2.69 2.69 0 00.828-1.989c0-.778-.275-1.444-.828-1.998"/></g></svg>