<svg xmlns="http://www.w3.org/2000/svg" xmlns:xlink="http://www.w3.org/1999/xlink" width="378" zoomAndPan="magnify" viewBox="0 0 283.5 283.500005" height="378" preserveAspectRatio="xMidYMid meet" version="1.0"><defs><clipPath id="665db650dd"><rect x="0" width="159" y="0" height="230"/></clipPath></defs><g transform="matrix(1, 0, 0, 1, 68, 28)"><g clip-path="url(#665db650dd)"><path fill="#000000" d="M 38.3125 159.191406 C 16.78125 159.191406 26.0625 135.28125 15.875 135.941406 C 15.875 135.941406 43.289062 121.347656 74.175781 121.347656 C 121.554688 121.347656 149.089844 145.175781 149.089844 145.175781 C 149.089844 145.175781 131.519531 136.703125 111.179688 136.703125 C 83.960938 136.710938 60.4375 159.191406 38.3125 159.191406 Z M 38.3125 159.191406 " fill-opacity="1" fill-rule="nonzero"/><path fill="#000000" d="M 116.675781 146.289062 C 84 146.289062 68.824219 171.980469 38.410156 171.980469 C 21.234375 171.980469 15.960938 159.503906 15.960938 149.609375 C 18.910156 161.871094 27.898438 166.710938 38.175781 166.710938 C 63.226562 166.710938 86.414062 144.179688 110.863281 144.179688 C 123.632812 144.179688 134.800781 148.015625 134.800781 148.015625 L 134.425781 148.390625 C 127.890625 146.921875 120.933594 146.289062 116.675781 146.289062 Z M 116.675781 146.289062 " fill-opacity="1" fill-rule="nonzero"/><path fill="#000000" d="M 25.246094 106.003906 L 26.941406 104.320312 L 26.578125 103.953125 L 109.996094 21.15625 L 110.242188 21.402344 L 125.773438 6.167969 L 125.863281 6.167969 C 126.253906 14.128906 118.46875 18.121094 118.46875 24.25 C 118.46875 28.46875 124.964844 31.453125 129.320312 27.089844 C 133.253906 23.15625 132.503906 14.148438 127.902344 5.042969 L 128.03125 4.90625 L 124.292969 1.171875 L 123.035156 2.433594 L 123.042969 3.4375 L 107.808594 18.957031 L 108.054688 19.203125 L 25.246094 102.625 L 24.882812 102.25 L 22.851562 104.28125 L 15.804688 99.597656 L 12.328125 97.53125 C 11.875 97.304688 11.734375 97.261719 11.351562 97.332031 C 11.144531 97.371094 10.386719 97.984375 9.871094 98.75 C 9.4375 99.402344 9.300781 99.925781 9.269531 100.328125 C 9.261719 100.546875 9.339844 100.800781 9.597656 100.988281 L 12.820312 103.589844 L 27.808594 114.6875 C 30.023438 115.582031 32.625 116.527344 33.039062 116.609375 C 33.523438 116.695312 33.808594 116.324219 34.261719 115.683594 C 34.765625 114.960938 35.023438 114.273438 34.972656 114.066406 C 34.894531 113.671875 34.667969 113.425781 34.351562 113.128906 L 30.824219 110.320312 Z M 120.492188 23.601562 C 120.492188 19.796875 128.34375 13.773438 126.886719 6.050781 L 127.320312 5.617188 C 130.632812 13.253906 131.46875 22.230469 128.039062 25.667969 C 125.09375 28.617188 120.5 27.277344 120.492188 23.601562 Z M 120.492188 23.601562 " fill-opacity="1" fill-rule="nonzero"/><path fill="#000000" d="M 118.972656 110.339844 L 115.445312 113.148438 C 115.128906 113.445312 114.902344 113.691406 114.824219 114.085938 C 114.773438 114.28125 115.019531 114.972656 115.535156 115.703125 C 115.988281 116.34375 116.28125 116.714844 116.757812 116.628906 C 117.167969 116.550781 119.78125 115.601562 122 114.707031 L 136.988281 103.609375 L 140.210938 101.007812 C 140.457031 100.820312 140.554688 100.566406 140.535156 100.347656 C 140.503906 99.933594 140.378906 99.421875 139.933594 98.769531 C 139.421875 98.003906 138.664062 97.390625 138.457031 97.351562 C 138.070312 97.285156 137.921875 97.324219 137.480469 97.550781 L 134 99.617188 L 126.957031 104.300781 L 124.933594 102.269531 L 124.570312 102.644531 L 41.753906 19.214844 L 42 18.96875 L 26.773438 3.4375 L 26.773438 2.433594 L 25.523438 1.171875 L 21.785156 4.90625 L 21.914062 5.042969 C 17.3125 14.148438 16.574219 23.167969 20.496094 27.089844 C 24.863281 31.453125 31.347656 28.46875 31.347656 24.25 C 31.347656 18.121094 23.5625 14.128906 23.953125 6.167969 L 24.042969 6.167969 L 39.574219 21.402344 L 39.820312 21.15625 L 123.238281 103.953125 L 122.875 104.320312 L 124.570312 106.003906 Z M 21.765625 25.667969 C 18.328125 22.230469 19.175781 13.261719 22.488281 5.617188 L 22.910156 6.050781 C 21.460938 13.773438 29.304688 19.796875 29.304688 23.601562 C 29.316406 27.277344 24.714844 28.617188 21.765625 25.667969 Z M 21.765625 25.667969 " fill-opacity="1" fill-rule="nonzero"/><path fill="#000000" d="M 16.742188 191.964844 L 19.765625 191.964844 C 21.71875 191.964844 23.167969 192.203125 24.113281 192.6875 C 25.058594 193.167969 25.835938 193.957031 26.457031 195.042969 C 27.070312 196.125 27.375 197.394531 27.375 198.84375 C 27.375 199.878906 27.207031 200.824219 26.863281 201.703125 C 26.515625 202.570312 26.042969 203.28125 25.441406 203.851562 C 24.839844 204.421875 24.179688 204.816406 23.480469 205.035156 C 22.78125 205.25 21.558594 205.359375 19.816406 205.359375 L 16.75 205.359375 L 16.75 191.964844 Z M 19.273438 194.429688 L 19.273438 202.886719 L 20.464844 202.886719 C 21.628906 202.886719 22.476562 202.746094 23 202.480469 C 23.519531 202.207031 23.953125 201.761719 24.289062 201.132812 C 24.625 200.5 24.792969 199.710938 24.792969 198.796875 C 24.792969 197.375 24.386719 196.273438 23.601562 195.484375 C 22.878906 194.773438 21.726562 194.429688 20.140625 194.429688 Z M 19.273438 194.429688 " fill-opacity="1" fill-rule="nonzero"/><path fill="#000000" d="M 29.699219 191.964844 L 32.261719 191.964844 L 32.261719 200.628906 C 32.261719 201.378906 32.332031 201.898438 32.460938 202.214844 C 32.585938 202.53125 32.804688 202.777344 33.109375 202.964844 C 33.40625 203.140625 33.769531 203.238281 34.203125 203.238281 C 34.65625 203.238281 35.042969 203.140625 35.367188 202.933594 C 35.691406 202.726562 35.917969 202.460938 36.035156 202.144531 C 36.164062 201.832031 36.222656 201.21875 36.222656 200.3125 L 36.222656 191.964844 L 38.785156 191.964844 L 38.785156 199.949219 C 38.785156 201.296875 38.707031 202.234375 38.558594 202.757812 C 38.402344 203.28125 38.117188 203.78125 37.691406 204.265625 C 37.257812 204.746094 36.765625 205.113281 36.203125 205.347656 C 35.640625 205.585938 34.992188 205.695312 34.253906 205.695312 C 33.277344 205.695312 32.441406 205.46875 31.710938 205.023438 C 30.992188 204.582031 30.480469 204.019531 30.164062 203.347656 C 29.847656 202.679688 29.699219 201.546875 29.699219 199.949219 Z M 29.699219 191.964844 " fill-opacity="1" fill-rule="nonzero"/><path fill="#000000" d="M 41.734375 205.367188 L 41.734375 191.964844 L 43.832031 191.964844 C 45.054688 191.964844 45.941406 192.046875 46.511719 192.203125 C 47.308594 192.417969 47.949219 192.8125 48.425781 193.386719 C 48.898438 193.957031 49.132812 194.636719 49.132812 195.425781 C 49.132812 195.929688 49.023438 196.402344 48.808594 196.816406 C 48.589844 197.230469 48.246094 197.621094 47.761719 197.988281 C 48.570312 198.371094 49.171875 198.855469 49.546875 199.425781 C 49.921875 200.007812 50.109375 200.6875 50.109375 201.464844 C 50.109375 202.214844 49.910156 202.90625 49.527344 203.527344 C 49.132812 204.148438 48.628906 204.609375 48.019531 204.914062 C 47.410156 205.222656 46.5625 205.367188 45.476562 205.367188 Z M 44.285156 194.402344 L 44.285156 197.230469 L 44.835938 197.230469 C 45.457031 197.230469 45.921875 197.089844 46.214844 196.835938 C 46.523438 196.570312 46.667969 196.214844 46.667969 195.769531 C 46.667969 195.347656 46.523438 195.011719 46.234375 194.773438 C 45.949219 194.527344 45.515625 194.410156 44.933594 194.410156 L 44.285156 194.410156 Z M 44.285156 199.496094 L 44.285156 202.933594 L 44.925781 202.933594 C 45.980469 202.933594 46.699219 202.796875 47.0625 202.53125 C 47.429688 202.265625 47.617188 201.871094 47.617188 201.367188 C 47.617188 200.785156 47.398438 200.332031 46.964844 199.996094 C 46.53125 199.664062 45.8125 199.496094 44.816406 199.496094 Z M 44.285156 199.496094 " fill-opacity="1" fill-rule="nonzero"/><path fill="#000000" d="M 56.652344 191.964844 L 59.234375 191.964844 L 64.386719 205.367188 L 61.738281 205.367188 L 60.691406 202.609375 L 55.214844 202.609375 L 54.128906 205.367188 L 51.46875 205.367188 Z M 57.953125 195.523438 L 56.148438 200.125 L 59.746094 200.125 Z M 57.953125 195.523438 " fill-opacity="1" fill-rule="nonzero"/><path fill="#000000" d="M 66.183594 191.964844 L 68.714844 191.964844 L 68.714844 205.367188 L 66.183594 205.367188 Z M 66.183594 191.964844 " fill-opacity="1" fill-rule="nonzero"/><path fill="#000000" d="M 76.796875 191.964844 L 79.496094 191.964844 C 80.953125 191.964844 82.007812 192.105469 82.660156 192.371094 C 83.308594 192.636719 83.8125 193.070312 84.1875 193.679688 C 84.5625 194.28125 84.75 195.011719 84.75 195.847656 C 84.75 196.785156 84.5 197.5625 84.019531 198.175781 C 83.527344 198.796875 82.867188 199.230469 82.027344 199.476562 C 81.535156 199.613281 80.640625 199.683594 79.347656 199.683594 L 79.347656 205.359375 L 76.796875 205.359375 Z M 79.335938 197.199219 L 80.144531 197.199219 C 80.785156 197.199219 81.230469 197.148438 81.476562 197.0625 C 81.722656 196.960938 81.917969 196.816406 82.066406 196.609375 C 82.207031 196.402344 82.285156 196.144531 82.285156 195.839844 C 82.285156 195.328125 82.085938 194.941406 81.683594 194.707031 C 81.398438 194.527344 80.855469 194.441406 80.066406 194.441406 L 79.347656 194.441406 L 79.347656 197.199219 Z M 79.335938 197.199219 " fill-opacity="1" fill-rule="nonzero"/><path fill="#000000" d="M 93.578125 191.632812 C 95.480469 191.632812 97.105469 192.320312 98.476562 193.691406 C 99.835938 195.0625 100.523438 196.734375 100.523438 198.707031 C 100.523438 200.667969 99.855469 202.3125 98.503906 203.671875 C 97.15625 205.035156 95.527344 205.703125 93.605469 205.703125 C 91.597656 205.703125 89.929688 205.015625 88.589844 203.625 C 87.261719 202.234375 86.601562 200.578125 86.601562 198.667969 C 86.601562 197.386719 86.90625 196.203125 87.527344 195.140625 C 88.148438 194.066406 89.003906 193.207031 90.089844 192.578125 C 91.152344 191.945312 92.328125 191.632812 93.578125 191.632812 Z M 93.546875 194.125 C 92.304688 194.125 91.261719 194.558594 90.425781 195.414062 C 89.578125 196.28125 89.152344 197.375 89.152344 198.707031 C 89.152344 200.195312 89.683594 201.359375 90.75 202.226562 C 91.578125 202.894531 92.523438 203.238281 93.597656 203.238281 C 94.808594 203.238281 95.835938 202.804688 96.691406 201.929688 C 97.539062 201.050781 97.964844 199.976562 97.964844 198.695312 C 97.964844 197.425781 97.53125 196.34375 96.683594 195.453125 C 95.824219 194.566406 94.78125 194.125 93.546875 194.125 Z M 93.546875 194.125 " fill-opacity="1" fill-rule="nonzero"/><path fill="#000000" d="M 102.921875 191.964844 L 105.472656 191.964844 L 105.472656 202.933594 L 109.1875 202.933594 L 109.1875 205.367188 L 102.921875 205.367188 Z M 102.921875 191.964844 " fill-opacity="1" fill-rule="nonzero"/><path fill="#000000" d="M 117.457031 191.632812 C 119.359375 191.632812 120.984375 192.320312 122.34375 193.691406 C 123.714844 195.0625 124.394531 196.734375 124.394531 198.707031 C 124.394531 200.667969 123.722656 202.3125 122.371094 203.671875 C 121.03125 205.035156 119.398438 205.703125 117.476562 205.703125 C 115.464844 205.703125 113.789062 205.015625 112.460938 203.625 C 111.128906 202.234375 110.46875 200.578125 110.46875 198.667969 C 110.46875 197.386719 110.773438 196.203125 111.394531 195.140625 C 112.015625 194.066406 112.863281 193.207031 113.957031 192.578125 C 115.03125 191.945312 116.203125 191.632812 117.457031 191.632812 Z M 117.425781 194.125 C 116.183594 194.125 115.140625 194.558594 114.300781 195.414062 C 113.453125 196.28125 113.03125 197.375 113.03125 198.707031 C 113.03125 200.195312 113.5625 201.359375 114.628906 202.226562 C 115.453125 202.894531 116.402344 203.238281 117.476562 203.238281 C 118.6875 203.238281 119.710938 202.804688 120.570312 201.929688 C 121.417969 201.050781 121.851562 199.976562 121.851562 198.695312 C 121.851562 197.425781 121.425781 196.34375 120.570312 195.453125 C 119.703125 194.566406 118.65625 194.125 117.425781 194.125 Z M 117.425781 194.125 " fill-opacity="1" fill-rule="nonzero"/><path fill="#000000" d="M 140.425781 200.097656 L 141.945312 201.839844 L 141.253906 202.460938 L 140.574219 203.082031 L 142.714844 205.367188 L 139.628906 205.367188 L 138.742188 204.460938 C 137.332031 205.289062 136.023438 205.703125 134.808594 205.703125 C 133.785156 205.703125 132.945312 205.40625 132.316406 204.796875 C 131.675781 204.195312 131.359375 203.425781 131.359375 202.480469 C 131.359375 201.773438 131.539062 201.101562 131.902344 200.472656 C 132.257812 199.839844 132.878906 199.191406 133.753906 198.519531 C 132.886719 197.355469 132.453125 196.332031 132.453125 195.445312 C 132.453125 194.785156 132.738281 194.125 133.3125 193.484375 C 133.882812 192.832031 134.691406 192.519531 135.726562 192.519531 C 136.78125 192.519531 137.578125 192.832031 138.140625 193.472656 C 138.703125 194.113281 138.988281 194.753906 138.988281 195.40625 C 138.988281 195.917969 138.859375 196.402344 138.605469 196.875 C 138.347656 197.347656 137.757812 198.035156 136.820312 198.953125 C 137.902344 200.234375 138.613281 201.03125 138.929688 201.347656 C 139.125 201.191406 139.628906 200.785156 140.425781 200.097656 Z M 137.097656 202.679688 C 136.632812 202.214844 135.960938 201.457031 135.113281 200.390625 C 134.207031 201.140625 133.765625 201.792969 133.765625 202.351562 C 133.765625 202.609375 133.894531 202.855469 134.140625 203.074219 C 134.386719 203.289062 134.691406 203.398438 135.074219 203.398438 C 135.597656 203.398438 136.277344 203.160156 137.097656 202.679688 Z M 135.578125 197.148438 C 136.25 196.578125 136.582031 196.066406 136.582031 195.621094 C 136.582031 195.394531 136.503906 195.199219 136.355469 195.0625 C 136.207031 194.914062 136 194.84375 135.753906 194.84375 C 135.527344 194.84375 135.332031 194.921875 135.164062 195.089844 C 135.007812 195.257812 134.929688 195.445312 134.929688 195.660156 C 134.929688 196.09375 135.144531 196.589844 135.578125 197.148438 Z M 135.578125 197.148438 " fill-opacity="1" fill-rule="nonzero"/><path fill="#000000" d="M 1.257812 214.347656 L 8.570312 214.347656 L 8.570312 216.839844 L 3.792969 216.839844 L 3.792969 219.265625 L 8.570312 219.265625 L 8.570312 221.71875 L 3.792969 221.71875 L 3.792969 225.246094 L 8.570312 225.246094 L 8.570312 227.75 L 1.257812 227.75 Z M 1.257812 214.347656 " fill-opacity="1" fill-rule="nonzero"/><path fill="#000000" d="M 22.445312 225.796875 L 24.78125 228.8125 L 21.746094 228.8125 L 20.566406 227.285156 C 19.589844 227.816406 18.496094 228.082031 17.292969 228.082031 C 15.28125 228.082031 13.609375 227.382812 12.277344 225.996094 C 10.945312 224.605469 10.285156 222.949219 10.285156 221.039062 C 10.285156 219.757812 10.59375 218.582031 11.210938 217.507812 C 11.832031 216.433594 12.691406 215.578125 13.773438 214.957031 C 14.859375 214.328125 16.023438 214.011719 17.273438 214.011719 C 19.175781 214.011719 20.8125 214.699219 22.171875 216.070312 C 23.539062 217.441406 24.222656 219.117188 24.222656 221.085938 C 24.210938 222.910156 23.628906 224.476562 22.445312 225.796875 Z M 20.851562 223.738281 C 21.394531 222.941406 21.660156 222.050781 21.660156 221.078125 C 21.660156 219.804688 21.234375 218.730469 20.378906 217.835938 C 19.519531 216.949219 18.484375 216.503906 17.261719 216.503906 C 16.011719 216.503906 14.957031 216.9375 14.121094 217.804688 C 13.273438 218.671875 12.847656 219.765625 12.847656 221.097656 C 12.847656 222.585938 13.378906 223.757812 14.445312 224.613281 C 15.28125 225.285156 16.21875 225.621094 17.285156 225.621094 C 17.882812 225.621094 18.464844 225.5 18.996094 225.265625 L 16.601562 222.179688 L 19.636719 222.179688 Z M 20.851562 223.738281 " fill-opacity="1" fill-rule="nonzero"/><path fill="#000000" d="M 26.527344 214.347656 L 29.089844 214.347656 L 29.089844 223.019531 C 29.089844 223.765625 29.148438 224.289062 29.285156 224.605469 C 29.414062 224.921875 29.632812 225.167969 29.9375 225.34375 C 30.230469 225.519531 30.597656 225.621094 31.019531 225.621094 C 31.472656 225.621094 31.859375 225.519531 32.191406 225.316406 C 32.519531 225.109375 32.734375 224.839844 32.875 224.527344 C 32.992188 224.199219 33.050781 223.601562 33.050781 222.703125 L 33.050781 214.355469 L 35.613281 214.355469 L 35.613281 222.347656 C 35.613281 223.699219 35.535156 224.632812 35.375 225.15625 C 35.230469 225.679688 34.933594 226.183594 34.507812 226.675781 C 34.085938 227.15625 33.59375 227.523438 33.03125 227.75 C 32.480469 227.984375 31.820312 228.101562 31.078125 228.101562 C 30.113281 228.101562 29.265625 227.875 28.546875 227.433594 C 27.828125 226.988281 27.304688 226.429688 27 225.757812 C 26.695312 225.085938 26.535156 223.953125 26.535156 222.359375 L 26.535156 214.347656 Z M 26.527344 214.347656 " fill-opacity="1" fill-rule="nonzero"/><path fill="#000000" d="M 38.570312 214.347656 L 45.890625 214.347656 L 45.890625 216.839844 L 41.101562 216.839844 L 41.101562 219.265625 L 45.890625 219.265625 L 45.890625 221.71875 L 41.101562 221.71875 L 41.101562 225.246094 L 45.890625 225.246094 L 45.890625 227.75 L 38.570312 227.75 Z M 38.570312 214.347656 " fill-opacity="1" fill-rule="nonzero"/><path fill="#000000" d="M 55.28125 216.179688 L 53.402344 217.855469 C 52.730469 216.929688 52.058594 216.464844 51.371094 216.464844 C 51.035156 216.464844 50.757812 216.554688 50.550781 216.730469 C 50.335938 216.910156 50.238281 217.117188 50.238281 217.332031 C 50.238281 217.558594 50.316406 217.765625 50.464844 217.972656 C 50.671875 218.238281 51.292969 218.808594 52.335938 219.699219 C 53.3125 220.515625 53.894531 221.019531 54.101562 221.234375 C 54.621094 221.757812 54.988281 222.257812 55.203125 222.734375 C 55.410156 223.207031 55.527344 223.726562 55.527344 224.289062 C 55.527344 225.382812 55.15625 226.300781 54.386719 227.007812 C 53.628906 227.730469 52.640625 228.082031 51.417969 228.082031 C 50.464844 228.082031 49.636719 227.847656 48.925781 227.382812 C 48.21875 226.910156 47.617188 226.183594 47.101562 225.175781 L 49.242188 223.886719 C 49.882812 225.066406 50.632812 225.660156 51.46875 225.660156 C 51.914062 225.660156 52.277344 225.53125 52.574219 225.273438 C 52.867188 225.019531 53.027344 224.722656 53.027344 224.386719 C 53.027344 224.082031 52.90625 223.785156 52.679688 223.480469 C 52.453125 223.175781 51.960938 222.710938 51.191406 222.09375 C 49.734375 220.898438 48.789062 219.984375 48.375 219.332031 C 47.941406 218.683594 47.722656 218.042969 47.722656 217.402344 C 47.722656 216.476562 48.078125 215.675781 48.789062 215.007812 C 49.5 214.347656 50.367188 214.011719 51.410156 214.011719 C 52.078125 214.011719 52.71875 214.167969 53.3125 214.472656 C 53.933594 214.800781 54.582031 215.363281 55.28125 216.179688 Z M 55.28125 216.179688 " fill-opacity="1" fill-rule="nonzero"/><path fill="#000000" d="M 56.644531 214.347656 L 64.054688 214.347656 L 64.054688 216.859375 L 61.609375 216.859375 L 61.609375 227.75 L 59.019531 227.75 L 59.019531 216.859375 L 56.632812 216.859375 L 56.632812 214.347656 Z M 56.644531 214.347656 " fill-opacity="1" fill-rule="nonzero"/><path fill="#000000" d="M 65.976562 214.347656 L 68.683594 214.347656 C 70.164062 214.347656 71.21875 214.472656 71.847656 214.742188 C 72.480469 215.007812 72.980469 215.441406 73.367188 216.0625 C 73.75 216.683594 73.9375 217.402344 73.9375 218.238281 C 73.9375 219.125 73.730469 219.855469 73.308594 220.457031 C 72.882812 221.046875 72.253906 221.492188 71.394531 221.796875 L 74.566406 227.75 L 71.78125 227.75 L 68.753906 222.074219 L 68.515625 222.074219 L 68.515625 227.75 L 65.964844 227.75 L 65.964844 214.347656 Z M 68.527344 219.589844 L 69.324219 219.589844 C 70.144531 219.589844 70.707031 219.480469 71.011719 219.273438 C 71.316406 219.058594 71.472656 218.703125 71.472656 218.210938 C 71.472656 217.914062 71.394531 217.667969 71.246094 217.441406 C 71.097656 217.222656 70.890625 217.066406 70.625 216.976562 C 70.371094 216.890625 69.90625 216.839844 69.226562 216.839844 L 68.527344 216.839844 Z M 68.527344 219.589844 " fill-opacity="1" fill-rule="nonzero"/><path fill="#000000" d="M 76.441406 214.347656 L 78.972656 214.347656 L 78.972656 227.75 L 76.441406 227.75 Z M 76.441406 214.347656 " fill-opacity="1" fill-rule="nonzero"/><path fill="#000000" d="M 85.929688 214.347656 L 88.511719 214.347656 L 93.65625 227.75 L 91.003906 227.75 L 89.960938 225 L 84.480469 225 L 83.398438 227.75 L 80.746094 227.75 Z M 87.242188 217.902344 L 85.4375 222.507812 L 89.035156 222.507812 Z M 87.242188 217.902344 " fill-opacity="1" fill-rule="nonzero"/><path fill="#000000" d="M 95.65625 214.347656 L 98.089844 214.347656 L 103.835938 223.167969 L 103.835938 214.347656 L 106.390625 214.347656 L 106.390625 227.75 L 103.933594 227.75 L 98.199219 218.957031 L 98.199219 227.75 L 95.65625 227.75 Z M 95.65625 214.347656 " fill-opacity="1" fill-rule="nonzero"/><path fill="#000000" d="M 126.976562 216.710938 L 125.191406 218.40625 C 123.980469 217.125 122.621094 216.476562 121.101562 216.476562 C 119.820312 216.476562 118.738281 216.910156 117.859375 217.796875 C 116.984375 218.671875 116.539062 219.746094 116.539062 221.027344 C 116.539062 221.925781 116.734375 222.710938 117.121094 223.402344 C 117.515625 224.09375 118.058594 224.644531 118.765625 225.039062 C 119.476562 225.433594 120.265625 225.628906 121.132812 225.628906 C 121.871094 225.628906 122.550781 225.492188 123.160156 225.214844 C 123.773438 224.941406 124.441406 224.4375 125.179688 223.707031 L 126.914062 225.511719 C 125.921875 226.476562 124.984375 227.148438 124.105469 227.523438 C 123.230469 227.894531 122.226562 228.082031 121.09375 228.082031 C 119.011719 228.082031 117.308594 227.421875 115.976562 226.101562 C 114.648438 224.78125 113.988281 223.097656 113.988281 221.027344 C 113.988281 219.699219 114.292969 218.503906 114.894531 217.46875 C 115.503906 216.425781 116.371094 215.589844 117.496094 214.96875 C 118.617188 214.335938 119.832031 214.019531 121.132812 214.019531 C 122.226562 214.019531 123.300781 214.257812 124.3125 214.722656 C 125.359375 215.183594 126.234375 215.84375 126.976562 216.710938 Z M 126.976562 216.710938 " fill-opacity="1" fill-rule="nonzero"/><path fill="#000000" d="M 129.222656 214.347656 L 131.765625 214.347656 L 131.765625 225.316406 L 135.488281 225.316406 L 135.488281 227.75 L 129.222656 227.75 Z M 129.222656 214.347656 " fill-opacity="1" fill-rule="nonzero"/><path fill="#000000" d="M 137.332031 214.347656 L 139.894531 214.347656 L 139.894531 223.019531 C 139.894531 223.765625 139.964844 224.289062 140.089844 224.605469 C 140.21875 224.921875 140.4375 225.167969 140.742188 225.34375 C 141.046875 225.519531 141.414062 225.621094 141.835938 225.621094 C 142.28125 225.621094 142.671875 225.519531 143 225.316406 C 143.324219 225.109375 143.550781 224.839844 143.679688 224.527344 C 143.808594 224.199219 143.867188 223.601562 143.867188 222.703125 L 143.867188 214.355469 L 146.429688 214.355469 L 146.429688 222.347656 C 146.429688 223.699219 146.347656 224.632812 146.203125 225.15625 C 146.054688 225.679688 145.757812 226.183594 145.335938 226.675781 C 144.910156 227.15625 144.417969 227.523438 143.847656 227.75 C 143.285156 227.984375 142.632812 228.101562 141.894531 228.101562 C 140.917969 228.101562 140.070312 227.875 139.351562 227.433594 C 138.632812 226.988281 138.121094 226.429688 137.804688 225.757812 C 137.488281 225.085938 137.332031 223.953125 137.332031 222.359375 Z M 137.332031 214.347656 " fill-opacity="1" fill-rule="nonzero"/><path fill="#000000" d="M 149.363281 227.757812 L 149.363281 214.355469 L 151.472656 214.355469 C 152.695312 214.355469 153.582031 214.433594 154.152344 214.59375 C 154.953125 214.800781 155.59375 215.203125 156.066406 215.773438 C 156.539062 216.347656 156.777344 217.035156 156.777344 217.816406 C 156.777344 218.328125 156.667969 218.78125 156.460938 219.203125 C 156.242188 219.617188 155.886719 220.011719 155.414062 220.378906 C 156.222656 220.761719 156.824219 221.234375 157.199219 221.816406 C 157.574219 222.386719 157.761719 223.066406 157.761719 223.847656 C 157.761719 224.59375 157.5625 225.285156 157.179688 225.90625 C 156.796875 226.527344 156.292969 226.988281 155.679688 227.296875 C 155.070312 227.601562 154.222656 227.75 153.140625 227.75 L 149.363281 227.75 Z M 151.917969 216.789062 L 151.917969 219.617188 L 152.480469 219.617188 C 153.101562 219.617188 153.5625 219.492188 153.859375 219.222656 C 154.152344 218.957031 154.3125 218.601562 154.3125 218.160156 C 154.3125 217.734375 154.175781 217.402344 153.886719 217.164062 C 153.601562 216.917969 153.167969 216.800781 152.585938 216.800781 L 151.917969 216.800781 Z M 151.917969 221.886719 L 151.917969 225.316406 L 152.558594 225.316406 C 153.613281 225.316406 154.332031 225.175781 154.695312 224.910156 C 155.0625 224.644531 155.246094 224.25 155.246094 223.746094 C 155.246094 223.175781 155.03125 222.722656 154.597656 222.378906 C 154.175781 222.042969 153.453125 221.886719 152.449219 221.886719 Z M 151.917969 221.886719 " fill-opacity="1" fill-rule="nonzero"/></g></g></svg>